Coordinates
version=1
nRows=16
nColumns=22
inDegrees=yes

Units are S.I. units (second, meters, Newtons, ...)
If the header above contains a line with 'inDegrees', this indicates whether rotational values are in degrees (yes) or radians (no).

endheader
time	pelvis_tilt	pelvis_list	pelvis_rotation	pelvis_tx	pelvis_ty	pelvis_tz	hip_flexion_r	hip_adduction_r	hip_rotation_r	knee_angle_r	ankle_angle_r	subtalar_angle_r	hip_flexion_l	hip_adduction_l	hip_rotation_l	knee_angle_l	ankle_angle_l	subtalar_angle_l	lumbar_extension	lumbar_bending	lumbar_rotation
      3.26000000	     -5.49552068	      0.70090717	    -41.45109921	      0.13736883	      0.88353506	      0.32324375	     28.67681205	     -0.67985914	     -2.28721372	    -51.05970633	      7.34706807	     10.05782389	      3.70141718	     -0.96505975	      1.98992787	     -9.73659274	     16.85231320	      6.37245292	     -1.23922223	     -0.97711939	      4.48640291
      3.27000000	     -5.40154032	      0.67651480	    -41.11692623	      0.14388517	      0.88315932	      0.32724908	     29.05494004	     -0.58612218	     -2.20785099	    -48.98116742	      7.53883914	      9.72837579	      2.81675585	     -0.82898826	      2.29615528	     -9.18460484	     16.92086458	      5.87465768	     -1.24234389	     -1.00514367	      4.14896682
      3.28000000	     -5.33266370	      0.69498958	    -40.76877161	      0.15043186	      0.88261896	      0.33122818	     29.44066378	     -0.55440374	     -2.17366697	    -46.81929413	      7.60826195	      9.46376975	      1.97971588	     -0.68185284	      2.60485657	     -8.62386824	     16.93883228	      5.51318536	     -1.20069756	     -1.03751410	      3.79385466
      3.29000000	     -5.22283071	      0.72563142	    -40.45418498	      0.15697126	      0.88199612	      0.33527123	     29.75540174	     -0.56049445	     -2.10454866	    -44.57887965	      7.65040817	      9.10879769	      1.10370916	     -0.50471599	      2.89157208	     -8.05783552	     16.99171954	      5.05481948	     -1.19675906	     -1.10735627	      3.50591252
      3.30000000	     -5.11934050	      0.79146857	    -40.15294802	      0.16357130	      0.88121008	      0.33936582	     30.05768136	     -0.61211111	     -2.05402432	    -42.28023007	      7.61703008	      8.77060563	      0.23543512	     -0.31160530	      3.15204105	     -7.46987364	     17.04849414	      4.66226513	     -1.16378127	     -1.18940452	      3.22837643
      3.31000000	     -5.00754206	      0.87823066	    -39.87057293	      0.17021950	      0.88029737	      0.34352677	     30.31787487	     -0.69187358	     -1.99511996	    -39.91402855	      7.53975228	      8.42674373	     -0.64309810	     -0.10325130	      3.39503536	     -6.87227828	     17.13421313	      4.29411433	     -1.12934771	     -1.28931634	      2.99824265
      3.32000000	     -4.90518457	      0.97527140	    -39.58514752	      0.17697474	      0.87926056	      0.34775580	     30.53774295	     -0.79623931	     -1.97253003	    -37.48476038	      7.36326119	      8.18429893	     -1.53558026	      0.09719830	      3.62636668	     -6.24337109	     17.21642670	      4.05393791	     -1.07943186	     -1.37847632	      2.74107591
      3.33000000	     -4.78607549	      1.07705725	    -39.30064009	      0.18378733	      0.87812791	      0.35204336	     30.68979238	     -0.91886287	     -1.93223814	    -34.99223510	      7.15124250	      7.97079883	     -2.43814803	      0.30398331	      3.84783264	     -5.63750693	     17.33759366	      3.82889374	     -1.05114266	     -1.48020223	      2.53042820
      3.34000000	     -4.68528153	      1.19279225	    -39.01435888	      0.19067508	      0.87686274	      0.35641122	     30.81430075	     -1.05155394	     -1.90550176	    -32.45149345	      6.87025878	      7.85076839	     -3.33042329	      0.49944945	      4.06003318	     -5.02556604	     17.47040862	      3.66660516	     -1.00043546	     -1.57496636	      2.31121336
      3.35000000	     -4.59249449	      1.31807254	    -38.72127718	      0.19761522	      0.87548189	      0.36084365	     30.90127645	     -1.19552070	     -1.87678924	    -29.87170187	      6.55155803	      7.82415416	     -4.20175719	      0.68687561	      4.26940303	     -4.44632108	     17.62825332	      3.54259630	     -0.94402168	     -1.66700363	      2.09575967
      3.36000000	     -4.51933642	      1.45418918	    -38.42184249	      0.20459496	      0.87398694	      0.36535487	     30.96576543	     -1.34415790	     -1.85790300	    -27.26782120	      6.19897336	      7.89155412	     -5.04054644	      0.86010903	      4.47754203	     -3.89872762	     17.80699236	      3.44287427	     -0.87114854	     -1.75539346	      1.87313673
      3.37000000	     -4.46574484	      1.61062314	    -38.11032351	      0.21159210	      0.87237358	      0.36992042	     31.02173051	     -1.50825269	     -1.85060629	    -24.65682363	      5.84054323	      8.03962006	     -5.81675863	      1.02736796	      4.69983174	     -3.42479238	     18.01238512	      3.35966823	     -0.77788395	     -1.84736560	      1.66254281
      3.38000000	     -4.42525985	      1.78434293	    -37.78603379	      0.21860883	      0.87066039	      0.37453810	     31.07320798	     -1.69041512	     -1.86276528	    -22.07155203	      5.48615243	      8.25837827	     -6.53437585	      1.19242398	      4.92996531	     -3.02845570	     18.25366501	      3.27584482	     -0.67317599	     -1.94395604	      1.43637897
      3.39000000	     -4.41456452	      1.97609095	    -37.44721890	      0.22563200	      0.86884378	      0.37921849	     31.13747383	     -1.88052483	     -1.92319940	    -19.52584488	      5.15583088	      8.51305662	     -7.16541793	      1.34544557	      5.17180008	     -2.73586440	     18.52547431	      3.19407298	     -0.54128353	     -2.03905799	      1.21633205
      3.40000000	     -4.42442908	      2.18264643	    -37.09182474	      0.23268047	      0.86694036	      0.38394079	     31.21512737	     -2.08309056	     -2.03832561	    -17.05304296	      4.86599200	      8.79299857	     -7.71668397	      1.49463401	      5.41417474	     -2.55258823	     18.84123132	      3.10725766	     -0.39339080	     -2.13013875	      0.98510361
      3.41000000	     -4.45223182	      2.40154856	    -36.72395345	      0.23971723	      0.86496660	      0.38873388	     31.31297648	     -2.28987447	     -2.22313181	    -14.68389803	      4.60534274	      9.09620280	     -8.18749681	      1.63767765	      5.65727056	     -2.48597232	     19.19909631	      3.01413743	     -0.23616389	     -2.22522548	      0.74358880
